<?xml version="1.0" encoding="UTF-8" standalone="no"?>
<!-- Created with Inkscape (http://www.inkscape.org/) -->

<svg
   xmlns:dc="http://purl.org/dc/elements/1.1/"
   xmlns:cc="http://creativecommons.org/ns#"
   xmlns:rdf="http://www.w3.org/1999/02/22-rdf-syntax-ns#"
   xmlns:svg="http://www.w3.org/2000/svg"
   xmlns="http://www.w3.org/2000/svg"
   xmlns:sodipodi="http://sodipodi.sourceforge.net/DTD/sodipodi-0.dtd"
   xmlns:inkscape="http://www.inkscape.org/namespaces/inkscape"
   width="792pt"
   height="612pt"
   id="svg2985"
   version="1.1"
   inkscape:version="0.48.3.1 r9886"
   sodipodi:docname="high_level_interaction.svg">
  <defs
     id="defs2987">
    <marker
       inkscape:stockid="DotM"
       orient="auto"
       refY="0.0"
       refX="0.0"
       id="DotM"
       style="overflow:visible">
      <path
         id="path4611"
         d="M -2.5,-1.0 C -2.5,1.7600000 -4.7400000,4.0 -7.5,4.0 C -10.260000,4.0 -12.5,1.7600000 -12.5,-1.0 C -12.5,-3.7600000 -10.260000,-6.0 -7.5,-6.0 C -4.7400000,-6.0 -2.5,-3.7600000 -2.5,-1.0 z "
         style="fill-rule:evenodd;stroke:#000000;stroke-width:1.0pt"
         transform="scale(0.4) translate(7.4, 1)" />
    </marker>
    <marker
       inkscape:stockid="DotL"
       orient="auto"
       refY="0.0"
       refX="0.0"
       id="DotL"
       style="overflow:visible">
      <path
         id="path4608"
         d="M -2.5,-1.0 C -2.5,1.7600000 -4.7400000,4.0 -7.5,4.0 C -10.260000,4.0 -12.5,1.7600000 -12.5,-1.0 C -12.5,-3.7600000 -10.260000,-6.0 -7.5,-6.0 C -4.7400000,-6.0 -2.5,-3.7600000 -2.5,-1.0 z "
         style="fill-rule:evenodd;stroke:#000000;stroke-width:1.0pt"
         transform="scale(0.8) translate(7.4, 1)" />
    </marker>
    <marker
       inkscape:stockid="Arrow2Lend"
       orient="auto"
       refY="0.0"
       refX="0.0"
       id="Arrow2Lend"
       style="overflow:visible;">
      <path
         id="path4568"
         style="fill-rule:evenodd;stroke-width:0.62500000;stroke-linejoin:round;"
         d="M 8.7185878,4.0337352 L -2.2072895,0.016013256 L 8.7185884,-4.0017078 C 6.9730900,-1.6296469 6.9831476,1.6157441 8.7185878,4.0337352 z "
         transform="scale(1.1) rotate(180) translate(1,0)" />
    </marker>
    <marker
       inkscape:stockid="DotM"
       orient="auto"
       refY="0"
       refX="0"
       id="DotM-3"
       style="overflow:visible">
      <path
         inkscape:connector-curvature="0"
         id="path4611-4"
         d="m -2.5,-1 c 0,2.76 -2.24,5 -5,5 -2.76,0 -5,-2.24 -5,-5 0,-2.76 2.24,-5 5,-5 2.76,0 5,2.24 5,5 z"
         style="fill-rule:evenodd;stroke:#000000;stroke-width:1pt"
         transform="matrix(0.4,0,0,0.4,2.96,0.4)" />
    </marker>
    <marker
       inkscape:stockid="Arrow2Lend"
       orient="auto"
       refY="0"
       refX="0"
       id="Arrow2Lend-1"
       style="overflow:visible">
      <path
         inkscape:connector-curvature="0"
         id="path4568-1"
         style="fill-rule:evenodd;stroke-width:0.625;stroke-linejoin:round"
         d="M 8.7185878,4.0337352 -2.2072895,0.01601326 8.7185884,-4.0017078 c -1.7454984,2.3720609 -1.7354408,5.6174519 -6e-7,8.035443 z"
         transform="matrix(-1.1,0,0,-1.1,-1.1,0)" />
    </marker>
    <marker
       inkscape:stockid="DotM"
       orient="auto"
       refY="0"
       refX="0"
       id="DotM-8"
       style="overflow:visible">
      <path
         inkscape:connector-curvature="0"
         id="path4611-7"
         d="m -2.5,-1 c 0,2.76 -2.24,5 -5,5 -2.76,0 -5,-2.24 -5,-5 0,-2.76 2.24,-5 5,-5 2.76,0 5,2.24 5,5 z"
         style="fill-rule:evenodd;stroke:#000000;stroke-width:1pt"
         transform="matrix(0.4,0,0,0.4,2.96,0.4)" />
    </marker>
    <marker
       inkscape:stockid="Arrow2Lend"
       orient="auto"
       refY="0"
       refX="0"
       id="Arrow2Lend-4"
       style="overflow:visible">
      <path
         inkscape:connector-curvature="0"
         id="path4568-2"
         style="fill-rule:evenodd;stroke-width:0.625;stroke-linejoin:round"
         d="M 8.7185878,4.0337352 -2.2072895,0.01601326 8.7185884,-4.0017078 c -1.7454984,2.3720609 -1.7354408,5.6174519 -6e-7,8.035443 z"
         transform="matrix(-1.1,0,0,-1.1,-1.1,0)" />
    </marker>
    <marker
       inkscape:stockid="DotM"
       orient="auto"
       refY="0"
       refX="0"
       id="DotM-7"
       style="overflow:visible">
      <path
         inkscape:connector-curvature="0"
         id="path4611-9"
         d="m -2.5,-1 c 0,2.76 -2.24,5 -5,5 -2.76,0 -5,-2.24 -5,-5 0,-2.76 2.24,-5 5,-5 2.76,0 5,2.24 5,5 z"
         style="fill-rule:evenodd;stroke:#000000;stroke-width:1pt"
         transform="matrix(0.4,0,0,0.4,2.96,0.4)" />
    </marker>
    <marker
       inkscape:stockid="Arrow2Lend"
       orient="auto"
       refY="0"
       refX="0"
       id="Arrow2Lend-3"
       style="overflow:visible">
      <path
         inkscape:connector-curvature="0"
         id="path4568-19"
         style="fill-rule:evenodd;stroke-width:0.625;stroke-linejoin:round"
         d="M 8.7185878,4.0337352 -2.2072895,0.01601326 8.7185884,-4.0017078 c -1.7454984,2.3720609 -1.7354408,5.6174519 -6e-7,8.035443 z"
         transform="matrix(-1.1,0,0,-1.1,-1.1,0)" />
    </marker>
    <marker
       inkscape:stockid="DotM"
       orient="auto"
       refY="0"
       refX="0"
       id="DotM-6"
       style="overflow:visible">
      <path
         inkscape:connector-curvature="0"
         id="path4611-5"
         d="m -2.5,-1 c 0,2.76 -2.24,5 -5,5 -2.76,0 -5,-2.24 -5,-5 0,-2.76 2.24,-5 5,-5 2.76,0 5,2.24 5,5 z"
         style="fill-rule:evenodd;stroke:#000000;stroke-width:1pt"
         transform="matrix(0.4,0,0,0.4,2.96,0.4)" />
    </marker>
    <marker
       inkscape:stockid="Arrow2Lend"
       orient="auto"
       refY="0"
       refX="0"
       id="Arrow2Lend-0"
       style="overflow:visible">
      <path
         inkscape:connector-curvature="0"
         id="path4568-28"
         style="fill-rule:evenodd;stroke-width:0.625;stroke-linejoin:round"
         d="M 8.7185878,4.0337352 -2.2072895,0.01601326 8.7185884,-4.0017078 c -1.7454984,2.3720609 -1.7354408,5.6174519 -6e-7,8.035443 z"
         transform="matrix(-1.1,0,0,-1.1,-1.1,0)" />
    </marker>
    <marker
       inkscape:stockid="DotM"
       orient="auto"
       refY="0"
       refX="0"
       id="DotM-0"
       style="overflow:visible">
      <path
         inkscape:connector-curvature="0"
         id="path4611-2"
         d="m -2.5,-1 c 0,2.76 -2.24,5 -5,5 -2.76,0 -5,-2.24 -5,-5 0,-2.76 2.24,-5 5,-5 2.76,0 5,2.24 5,5 z"
         style="fill-rule:evenodd;stroke:#000000;stroke-width:1pt"
         transform="matrix(0.4,0,0,0.4,2.96,0.4)" />
    </marker>
    <marker
       inkscape:stockid="Arrow2Lend"
       orient="auto"
       refY="0"
       refX="0"
       id="Arrow2Lend-48"
       style="overflow:visible">
      <path
         inkscape:connector-curvature="0"
         id="path4568-6"
         style="fill-rule:evenodd;stroke-width:0.625;stroke-linejoin:round"
         d="M 8.7185878,4.0337352 -2.2072895,0.01601326 8.7185884,-4.0017078 c -1.7454984,2.3720609 -1.7354408,5.6174519 -6e-7,8.035443 z"
         transform="matrix(-1.1,0,0,-1.1,-1.1,0)" />
    </marker>
    <marker
       inkscape:stockid="DotM"
       orient="auto"
       refY="0"
       refX="0"
       id="DotM-09"
       style="overflow:visible">
      <path
         inkscape:connector-curvature="0"
         id="path4611-0"
         d="m -2.5,-1 c 0,2.76 -2.24,5 -5,5 -2.76,0 -5,-2.24 -5,-5 0,-2.76 2.24,-5 5,-5 2.76,0 5,2.24 5,5 z"
         style="fill-rule:evenodd;stroke:#000000;stroke-width:1pt"
         transform="matrix(0.4,0,0,0.4,2.96,0.4)" />
    </marker>
    <marker
       inkscape:stockid="Arrow2Lend"
       orient="auto"
       refY="0"
       refX="0"
       id="Arrow2Lend-06"
       style="overflow:visible">
      <path
         inkscape:connector-curvature="0"
         id="path4568-13"
         style="fill-rule:evenodd;stroke-width:0.625;stroke-linejoin:round"
         d="M 8.7185878,4.0337352 -2.2072895,0.01601326 8.7185884,-4.0017078 c -1.7454984,2.3720609 -1.7354408,5.6174519 -6e-7,8.035443 z"
         transform="matrix(-1.1,0,0,-1.1,-1.1,0)" />
    </marker>
    <marker
       inkscape:stockid="DotM"
       orient="auto"
       refY="0"
       refX="0"
       id="DotM-9"
       style="overflow:visible">
      <path
         inkscape:connector-curvature="0"
         id="path4611-3"
         d="m -2.5,-1 c 0,2.76 -2.24,5 -5,5 -2.76,0 -5,-2.24 -5,-5 0,-2.76 2.24,-5 5,-5 2.76,0 5,2.24 5,5 z"
         style="fill-rule:evenodd;stroke:#000000;stroke-width:1pt"
         transform="matrix(0.4,0,0,0.4,2.96,0.4)" />
    </marker>
    <marker
       inkscape:stockid="Arrow2Lend"
       orient="auto"
       refY="0"
       refX="0"
       id="Arrow2Lend-44"
       style="overflow:visible">
      <path
         inkscape:connector-curvature="0"
         id="path4568-60"
         style="fill-rule:evenodd;stroke-width:0.625;stroke-linejoin:round"
         d="M 8.7185878,4.0337352 -2.2072895,0.01601326 8.7185884,-4.0017078 c -1.7454984,2.3720609 -1.7354408,5.6174519 -6e-7,8.035443 z"
         transform="matrix(-1.1,0,0,-1.1,-1.1,0)" />
    </marker>
    <marker
       inkscape:stockid="DotM"
       orient="auto"
       refY="0"
       refX="0"
       id="DotM-5"
       style="overflow:visible">
      <path
         inkscape:connector-curvature="0"
         id="path4611-98"
         d="m -2.5,-1 c 0,2.76 -2.24,5 -5,5 -2.76,0 -5,-2.24 -5,-5 0,-2.76 2.24,-5 5,-5 2.76,0 5,2.24 5,5 z"
         style="fill-rule:evenodd;stroke:#000000;stroke-width:1pt"
         transform="matrix(0.4,0,0,0.4,2.96,0.4)" />
    </marker>
    <marker
       inkscape:stockid="Arrow2Lend"
       orient="auto"
       refY="0"
       refX="0"
       id="Arrow2Lend-40"
       style="overflow:visible">
      <path
         inkscape:connector-curvature="0"
         id="path4568-7"
         style="fill-rule:evenodd;stroke-width:0.625;stroke-linejoin:round"
         d="M 8.7185878,4.0337352 -2.2072895,0.01601326 8.7185884,-4.0017078 c -1.7454984,2.3720609 -1.7354408,5.6174519 -6e-7,8.035443 z"
         transform="matrix(-1.1,0,0,-1.1,-1.1,0)" />
    </marker>
    <marker
       inkscape:stockid="DotM"
       orient="auto"
       refY="0"
       refX="0"
       id="DotM-36"
       style="overflow:visible">
      <path
         inkscape:connector-curvature="0"
         id="path4611-1"
         d="m -2.5,-1 c 0,2.76 -2.24,5 -5,5 -2.76,0 -5,-2.24 -5,-5 0,-2.76 2.24,-5 5,-5 2.76,0 5,2.24 5,5 z"
         style="fill-rule:evenodd;stroke:#000000;stroke-width:1pt"
         transform="matrix(0.4,0,0,0.4,2.96,0.4)" />
    </marker>
    <marker
       inkscape:stockid="Arrow2Lend"
       orient="auto"
       refY="0"
       refX="0"
       id="Arrow2Lend-5"
       style="overflow:visible">
      <path
         inkscape:connector-curvature="0"
         id="path4568-4"
         style="fill-rule:evenodd;stroke-width:0.625;stroke-linejoin:round"
         d="M 8.7185878,4.0337352 -2.2072895,0.01601326 8.7185884,-4.0017078 c -1.7454984,2.3720609 -1.7354408,5.6174519 -6e-7,8.035443 z"
         transform="matrix(-1.1,0,0,-1.1,-1.1,0)" />
    </marker>
    <marker
       inkscape:stockid="DotM"
       orient="auto"
       refY="0"
       refX="0"
       id="DotM-1"
       style="overflow:visible">
      <path
         inkscape:connector-curvature="0"
         id="path4611-46"
         d="m -2.5,-1 c 0,2.76 -2.24,5 -5,5 -2.76,0 -5,-2.24 -5,-5 0,-2.76 2.24,-5 5,-5 2.76,0 5,2.24 5,5 z"
         style="fill-rule:evenodd;stroke:#000000;stroke-width:1pt"
         transform="matrix(0.4,0,0,0.4,2.96,0.4)" />
    </marker>
    <marker
       inkscape:stockid="Arrow2Lend"
       orient="auto"
       refY="0"
       refX="0"
       id="Arrow2Lend-07"
       style="overflow:visible">
      <path
         inkscape:connector-curvature="0"
         id="path4568-17"
         style="fill-rule:evenodd;stroke-width:0.625;stroke-linejoin:round"
         d="M 8.7185878,4.0337352 -2.2072895,0.01601326 8.7185884,-4.0017078 c -1.7454984,2.3720609 -1.7354408,5.6174519 -6e-7,8.035443 z"
         transform="matrix(-1.1,0,0,-1.1,-1.1,0)" />
    </marker>
    <marker
       inkscape:stockid="DotM"
       orient="auto"
       refY="0"
       refX="0"
       id="DotM-80"
       style="overflow:visible">
      <path
         inkscape:connector-curvature="0"
         id="path4611-12"
         d="m -2.5,-1 c 0,2.76 -2.24,5 -5,5 -2.76,0 -5,-2.24 -5,-5 0,-2.76 2.24,-5 5,-5 2.76,0 5,2.24 5,5 z"
         style="fill-rule:evenodd;stroke:#000000;stroke-width:1pt"
         transform="matrix(0.4,0,0,0.4,2.96,0.4)" />
    </marker>
    <marker
       inkscape:stockid="Arrow2Lend"
       orient="auto"
       refY="0"
       refX="0"
       id="Arrow2Lend-50"
       style="overflow:visible">
      <path
         inkscape:connector-curvature="0"
         id="path4568-9"
         style="fill-rule:evenodd;stroke-width:0.625;stroke-linejoin:round"
         d="M 8.7185878,4.0337352 -2.2072895,0.01601326 8.7185884,-4.0017078 c -1.7454984,2.3720609 -1.7354408,5.6174519 -6e-7,8.035443 z"
         transform="matrix(-1.1,0,0,-1.1,-1.1,0)" />
    </marker>
    <marker
       inkscape:stockid="DotM"
       orient="auto"
       refY="0"
       refX="0"
       id="marker6627"
       style="overflow:visible">
      <path
         inkscape:connector-curvature="0"
         id="path6629"
         d="m -2.5,-1 c 0,2.76 -2.24,5 -5,5 -2.76,0 -5,-2.24 -5,-5 0,-2.76 2.24,-5 5,-5 2.76,0 5,2.24 5,5 z"
         style="fill-rule:evenodd;stroke:#000000;stroke-width:1pt"
         transform="matrix(0.4,0,0,0.4,2.96,0.4)" />
    </marker>
    <marker
       inkscape:stockid="Arrow2Lend"
       orient="auto"
       refY="0"
       refX="0"
       id="marker6631"
       style="overflow:visible">
      <path
         inkscape:connector-curvature="0"
         id="path6633"
         style="fill-rule:evenodd;stroke-width:0.625;stroke-linejoin:round"
         d="M 8.7185878,4.0337352 -2.2072895,0.01601326 8.7185884,-4.0017078 c -1.7454984,2.3720609 -1.7354408,5.6174519 -6e-7,8.035443 z"
         transform="matrix(-1.1,0,0,-1.1,-1.1,0)" />
    </marker>
    <marker
       inkscape:stockid="DotM"
       orient="auto"
       refY="0"
       refX="0"
       id="DotM-17"
       style="overflow:visible">
      <path
         inkscape:connector-curvature="0"
         id="path4611-40"
         d="m -2.5,-1 c 0,2.76 -2.24,5 -5,5 -2.76,0 -5,-2.24 -5,-5 0,-2.76 2.24,-5 5,-5 2.76,0 5,2.24 5,5 z"
         style="fill-rule:evenodd;stroke:#000000;stroke-width:1pt"
         transform="matrix(0.4,0,0,0.4,2.96,0.4)" />
    </marker>
    <marker
       inkscape:stockid="Arrow2Lend"
       orient="auto"
       refY="0"
       refX="0"
       id="Arrow2Lend-9"
       style="overflow:visible">
      <path
         inkscape:connector-curvature="0"
         id="path4568-48"
         style="fill-rule:evenodd;stroke-width:0.625;stroke-linejoin:round"
         d="M 8.7185878,4.0337352 -2.2072895,0.01601326 8.7185884,-4.0017078 c -1.7454984,2.3720609 -1.7354408,5.6174519 -6e-7,8.035443 z"
         transform="matrix(-1.1,0,0,-1.1,-1.1,0)" />
    </marker>
    <marker
       inkscape:stockid="DotM"
       orient="auto"
       refY="0"
       refX="0"
       id="DotM-2"
       style="overflow:visible">
      <path
         inkscape:connector-curvature="0"
         id="path4611-31"
         d="m -2.5,-1 c 0,2.76 -2.24,5 -5,5 -2.76,0 -5,-2.24 -5,-5 0,-2.76 2.24,-5 5,-5 2.76,0 5,2.24 5,5 z"
         style="fill-rule:evenodd;stroke:#000000;stroke-width:1pt"
         transform="matrix(0.4,0,0,0.4,2.96,0.4)" />
    </marker>
    <marker
       inkscape:stockid="Arrow2Lend"
       orient="auto"
       refY="0"
       refX="0"
       id="Arrow2Lend-6"
       style="overflow:visible">
      <path
         inkscape:connector-curvature="0"
         id="path4568-8"
         style="fill-rule:evenodd;stroke-width:0.625;stroke-linejoin:round"
         d="M 8.7185878,4.0337352 -2.2072895,0.01601326 8.7185884,-4.0017078 c -1.7454984,2.3720609 -1.7354408,5.6174519 -6e-7,8.035443 z"
         transform="matrix(-1.1,0,0,-1.1,-1.1,0)" />
    </marker>
    <marker
       inkscape:stockid="DotM"
       orient="auto"
       refY="0"
       refX="0"
       id="DotM-77"
       style="overflow:visible">
      <path
         inkscape:connector-curvature="0"
         id="path4611-126"
         d="m -2.5,-1 c 0,2.76 -2.24,5 -5,5 -2.76,0 -5,-2.24 -5,-5 0,-2.76 2.24,-5 5,-5 2.76,0 5,2.24 5,5 z"
         style="fill-rule:evenodd;stroke:#000000;stroke-width:1pt"
         transform="matrix(0.4,0,0,0.4,2.96,0.4)" />
    </marker>
    <marker
       inkscape:stockid="Arrow2Lend"
       orient="auto"
       refY="0"
       refX="0"
       id="Arrow2Lend-04"
       style="overflow:visible">
      <path
         inkscape:connector-curvature="0"
         id="path4568-94"
         style="fill-rule:evenodd;stroke-width:0.625;stroke-linejoin:round"
         d="M 8.7185878,4.0337352 -2.2072895,0.01601326 8.7185884,-4.0017078 c -1.7454984,2.3720609 -1.7354408,5.6174519 -6e-7,8.035443 z"
         transform="matrix(-1.1,0,0,-1.1,-1.1,0)" />
    </marker>
    <marker
       inkscape:stockid="DotM"
       orient="auto"
       refY="0"
       refX="0"
       id="DotM-362"
       style="overflow:visible">
      <path
         inkscape:connector-curvature="0"
         id="path4611-45"
         d="m -2.5,-1 c 0,2.76 -2.24,5 -5,5 -2.76,0 -5,-2.24 -5,-5 0,-2.76 2.24,-5 5,-5 2.76,0 5,2.24 5,5 z"
         style="fill-rule:evenodd;stroke:#000000;stroke-width:1pt"
         transform="matrix(0.4,0,0,0.4,2.96,0.4)" />
    </marker>
    <marker
       inkscape:stockid="Arrow2Lend"
       orient="auto"
       refY="0"
       refX="0"
       id="Arrow2Lend-8"
       style="overflow:visible">
      <path
         inkscape:connector-curvature="0"
         id="path4568-81"
         style="fill-rule:evenodd;stroke-width:0.625;stroke-linejoin:round"
         d="M 8.7185878,4.0337352 -2.2072895,0.01601326 8.7185884,-4.0017078 c -1.7454984,2.3720609 -1.7354408,5.6174519 -6e-7,8.035443 z"
         transform="matrix(-1.1,0,0,-1.1,-1.1,0)" />
    </marker>
    <marker
       inkscape:stockid="DotM"
       orient="auto"
       refY="0"
       refX="0"
       id="DotM-21"
       style="overflow:visible">
      <path
         inkscape:connector-curvature="0"
         id="path4611-49"
         d="m -2.5,-1 c 0,2.76 -2.24,5 -5,5 -2.76,0 -5,-2.24 -5,-5 0,-2.76 2.24,-5 5,-5 2.76,0 5,2.24 5,5 z"
         style="fill-rule:evenodd;stroke:#000000;stroke-width:1pt"
         transform="matrix(0.4,0,0,0.4,2.96,0.4)" />
    </marker>
    <marker
       inkscape:stockid="Arrow2Lend"
       orient="auto"
       refY="0"
       refX="0"
       id="Arrow2Lend-82"
       style="overflow:visible">
      <path
         inkscape:connector-curvature="0"
         id="path4568-45"
         style="fill-rule:evenodd;stroke-width:0.625;stroke-linejoin:round"
         d="M 8.7185878,4.0337352 -2.2072895,0.01601326 8.7185884,-4.0017078 c -1.7454984,2.3720609 -1.7354408,5.6174519 -6e-7,8.035443 z"
         transform="matrix(-1.1,0,0,-1.1,-1.1,0)" />
    </marker>
  </defs>
  <sodipodi:namedview
     inkscape:document-units="cm"
     pagecolor="#ffffff"
     bordercolor="#666666"
     borderopacity="1.0"
     inkscape:pageopacity="0.0"
     inkscape:pageshadow="2"
     inkscape:zoom="1.003457"
     inkscape:cx="456.78377"
     inkscape:cy="336.3839"
     inkscape:current-layer="layer5"
     id="namedview2989"
     showgrid="false"
     showguides="true"
     inkscape:guide-bbox="true"
     units="in"
     inkscape:snap-global="true"
     inkscape:window-width="1612"
     inkscape:window-height="1018"
     inkscape:window-x="-8"
     inkscape:window-y="-8"
     inkscape:window-maximized="1">
    <sodipodi:guide
       orientation="1,0"
       position="779.95671,638.45513"
       id="guide3400" />
    <sodipodi:guide
       orientation="0,1"
       position="-14.716164,637.32312"
       id="guide3402" />
    <sodipodi:guide
       orientation="0,1"
       position="311.30348,40.752455"
       id="guide3404" />
    <sodipodi:guide
       orientation="0,1"
       position="145.74616,48.582054"
       id="guide3406" />
  </sodipodi:namedview>
  <metadata
     id="metadata2991">
    <rdf:RDF>
      <cc:Work
         rdf:about="">
        <dc:format>image/svg+xml</dc:format>
        <dc:type
           rdf:resource="http://purl.org/dc/dcmitype/StillImage" />
        <dc:title />
      </cc:Work>
    </rdf:RDF>
  </metadata>
  <g
     inkscape:label="background"
     inkscape:groupmode="layer"
     id="layer1"
     style="display:inline" />
  <g
     inkscape:groupmode="layer"
     id="layer4"
     inkscape:label="grouping">
    <flowRoot
       xml:space="preserve"
       id="flowRoot6808"
       style="font-size:24px;font-style:normal;font-weight:normal;line-height:125%;letter-spacing:0px;word-spacing:0px;fill:#000000;fill-opacity:1;stroke:none;font-family:Sans"><flowRegion
         id="flowRegion6810"><rect
           id="rect6812"
           width="207.0177"
           height="65.295906"
           x="708.60895"
           y="197.37083"
           style="font-size:24px" /></flowRegion><flowPara
         id="flowPara6814" /></flowRoot>  </g>
  <g
     inkscape:groupmode="layer"
     id="layer2"
     inkscape:label="inner">
    <flowRoot
       xml:space="preserve"
       id="flowRoot6800"
       style="font-size:40px;font-style:normal;font-weight:normal;line-height:125%;letter-spacing:0px;word-spacing:0px;fill:#000000;fill-opacity:1;stroke:none;font-family:Sans"><flowRegion
         id="flowRegion6802"><rect
           id="rect6804"
           width="203.30771"
           height="53.423923"
           x="707.86694"
           y="196.62883" /></flowRegion><flowPara
         id="flowPara6806" /></flowRoot>    <path
       inkscape:connector-curvature="0"
       id="path4361-6-8-2"
       d="m 51.398664,716.70921 94.347496,-0.29126"
       style="fill:none;stroke:#000000;stroke-width:0.99212599;stroke-linecap:butt;stroke-linejoin:miter;stroke-miterlimit:0.10000045;stroke-opacity:1;stroke-dasharray:none;marker-start:url(#DotM);marker-mid:none;marker-end:url(#Arrow2Lend)"
       sodipodi:nodetypes="cc" />
    <flowRoot
       xml:space="preserve"
       id="flowRoot4305"
       style="font-size:24px;font-style:normal;font-weight:normal;line-height:125%;letter-spacing:0px;word-spacing:0px;fill:#000000;fill-opacity:1;stroke:none;font-family:Sans"
       transform="translate(-40.031613,-27.181218)"><flowRegion
         id="flowRegion4307"><rect
           id="rect4309"
           width="295.09753"
           height="24.013615"
           x="205.71663"
           y="731.38092" /></flowRegion><flowPara
         id="flowPara4311">Queries/Modifies/Calls</flowPara></flowRoot>  </g>
  <g
     inkscape:groupmode="layer"
     id="layer3"
     inkscape:label="title">
    <flowRoot
       xml:space="preserve"
       id="flowRoot6671"
       style="font-size:40px;font-style:normal;font-weight:normal;line-height:125%;letter-spacing:0px;word-spacing:0px;fill:#000000;fill-opacity:1;stroke:none;font-family:Sans"
       transform="translate(29.746338,-108.92751)"><flowRegion
         id="flowRegion6673"><rect
           id="rect6675"
           width="899.8725"
           height="68.232971"
           x="44.953487"
           y="43.335979" /></flowRegion><flowPara
         id="flowPara6677">High Level Core Objects and Module Interaction</flowPara></flowRoot>  </g>
  <g
     inkscape:groupmode="layer"
     id="layer5"
     inkscape:label="Layer">
    <g
       id="g3303"
       transform="matrix(0.80911612,0,0,0.80911612,-8.5664687,77.535754)">
      <rect
         y="133.89113"
         x="44.572697"
         height="587.54919"
         width="552.09363"
         id="rect3006"
         style="fill:#a5b592;fill-opacity:1;stroke:#000000;stroke-width:0.99000001;stroke-miterlimit:4;stroke-opacity:1;stroke-dasharray:7.92, 3.96;stroke-dashoffset:9.8999999;display:inline" />
      <rect
         y="133.89113"
         x="668.12439"
         height="587.54919"
         width="277.01938"
         id="rect3006-1"
         style="fill:#a5b592;fill-opacity:1;stroke:#000000;stroke-width:0.70126784;stroke-miterlimit:4;stroke-opacity:1;stroke-dasharray:5.61014252, 2.80507126;stroke-dashoffset:7.01267808;display:inline" />
      <flowRoot
         transform="translate(191.46,103.32762)"
         style="font-size:40px;font-style:normal;font-weight:normal;line-height:125%;letter-spacing:0px;word-spacing:0px;fill:#000000;fill-opacity:1;stroke:none;display:inline;font-family:Sans"
         id="flowRoot3976"
         xml:space="preserve"><flowRegion
           id="flowRegion3978"><rect
             y="42.719704"
             x="45.585712"
             height="91.171425"
             width="563.23682"
             id="rect3980" /></flowRegion><flowPara
           style="font-size:32px"
           id="flowPara3984">Main Thread</flowPara></flowRoot>      <flowRoot
         style="font-size:40px;font-style:normal;font-weight:normal;line-height:125%;letter-spacing:0px;word-spacing:0px;fill:#000000;fill-opacity:1;stroke:none;display:inline;font-family:Sans"
         id="flowRoot3976-7"
         xml:space="preserve"
         transform="translate(645.28306,105.96768)"><flowRegion
           id="flowRegion3978-4"><rect
             y="42.719704"
             x="45.585712"
             height="91.171425"
             width="563.23682"
             id="rect3980-0" /></flowRegion><flowPara
           style="font-size:32px"
           id="flowPara3984-4">Graphics Thread</flowPara></flowRoot>      <rect
         y="193.97076"
         x="683.4187"
         height="519.61139"
         width="249.97362"
         id="rect6789"
         style="fill:#000000;fill-opacity:0.32275133;stroke:#000000;stroke-width:0.99212599;stroke-miterlimit:0.10000045;stroke-opacity:1;stroke-dasharray:none;stroke-dashoffset:9.8999999" />
      <flowRoot
         transform="translate(2.0986899,13.641484)"
         style="font-size:24px;font-style:normal;font-weight:normal;text-align:center;line-height:125%;letter-spacing:0px;word-spacing:0px;text-anchor:middle;fill:#000000;fill-opacity:1;stroke:none;font-family:Sans"
         id="flowRoot6816"
         xml:space="preserve"><flowRegion
           id="flowRegion6818"><rect
             style="text-align:center;text-anchor:middle"
             y="194.40283"
             x="707.125"
             height="77.909889"
             width="205.61359"
             id="rect6820" /></flowRegion><flowPara
           id="flowPara6824">Graphics Engine</flowPara><flowPara
           id="flowPara6830">(Picasso)</flowPara><flowPara
           id="flowPara6826" /></flowRoot>      <g
         transform="translate(-0.09047744,-0.18678438)"
         id="g6722">
        <rect
           style="fill:#000000;fill-opacity:0.32275133;stroke:#000000;stroke-width:0.99000001;stroke-miterlimit:4;stroke-opacity:1;stroke-dasharray:7.92, 3.96;stroke-dashoffset:9.8999999"
           id="rect4025"
           width="155.8726"
           height="81.041267"
           x="414.45563"
           y="407.58398" />
        <flowRoot
           xml:space="preserve"
           id="flowRoot4027"
           style="font-size:40px;font-style:normal;font-weight:normal;line-height:125%;letter-spacing:0px;word-spacing:0px;fill:#000000;fill-opacity:1;stroke:none;font-family:Sans"
           transform="translate(-321.22261,288.27215)"><flowRegion
             id="flowRegion4029"><rect
               id="rect4031"
               width="217.7984"
               height="43.559681"
               x="703.03302"
               y="145.0343" /></flowRegion><flowPara
             id="flowPara4033"
             style="font-size:28px;text-align:center;text-anchor:middle">Datastore</flowPara></flowRoot>      </g>
      <g
         transform="translate(-0.89321182,-2.4503521)"
         id="g6712">
        <rect
           style="fill:#000000;fill-opacity:0.32275133;stroke:#000000;stroke-width:0.99000001;stroke-miterlimit:4;stroke-opacity:1;stroke-dasharray:7.92, 3.96;stroke-dashoffset:9.8999999"
           id="rect4025-8"
           width="155.06949"
           height="184.36905"
           x="415.25836"
           y="196.42111" />
        <flowRoot
           xml:space="preserve"
           id="flowRoot4027-4"
           style="font-size:40px;font-style:normal;font-weight:normal;line-height:125%;letter-spacing:0px;word-spacing:0px;fill:#000000;fill-opacity:1;stroke:none;font-family:Sans"
           transform="translate(-310.58386,69.115515)"><flowRegion
             id="flowRegion4029-5"><rect
               id="rect4031-5"
               width="202.60316"
               height="223.8765"
               x="703.03302"
               y="145.0343" /></flowRegion><flowPara
             id="flowPara4033-1"
             style="font-size:28px;text-align:center;text-anchor:middle">Events to Graphics</flowPara><flowPara
             id="flowPara4144"
             style="font-size:28px;text-align:center;text-anchor:middle">Translation</flowPara><flowPara
             id="flowPara4138"
             style="font-size:28px;text-align:center;text-anchor:middle">Library</flowPara><flowPara
             id="flowPara4136"
             style="font-size:36px;text-align:center;text-anchor:middle" /></flowRoot>      </g>
      <g
         transform="translate(-1.9744535,57.854979)"
         id="g6743">
        <rect
           style="fill:#000000;fill-opacity:0.32275133;stroke:#000000;stroke-width:0.99000001;stroke-miterlimit:4;stroke-opacity:1;stroke-dasharray:7.92, 3.96;stroke-dashoffset:9.8999999"
           id="rect4025-1"
           width="207.66849"
           height="126.62698"
           x="708.09808"
           y="222.91524" />
        <g
           id="g4044-2-1"
           transform="translate(352.06949,99.466097)">
          <flowRoot
             transform="translate(-337.33428,-5.7652034)"
             style="font-size:40px;font-style:normal;font-weight:normal;line-height:125%;letter-spacing:0px;word-spacing:0px;fill:#000000;fill-opacity:1;stroke:none;font-family:Sans"
             id="flowRoot4027-4-4"
             xml:space="preserve"><flowRegion
               id="flowRegion4029-5-2"><rect
                 y="145.0343"
                 x="703.03302"
                 height="223.8765"
                 width="202.60316"
                 id="rect4031-5-3" /></flowRegion><flowPara
               style="font-size:28px;text-align:center;text-anchor:middle"
               id="flowPara4138-1">Asset Layers</flowPara><flowPara
               style="font-size:36px;text-align:center;text-anchor:middle"
               id="flowPara4136-6" /></flowRoot>        </g>
      </g>
      <rect
         ry="0"
         rx="0"
         y="447.33051"
         x="706.12366"
         height="250.68988"
         width="206.61484"
         id="rect4025-1-8"
         style="fill:#000000;fill-opacity:0.32275133;stroke:#000000;stroke-width:0.99000001;stroke-miterlimit:4;stroke-opacity:1;stroke-dasharray:7.92, 3.96;stroke-dashoffset:9.8999999" />
      <g
         transform="translate(345.09773,381.90864)"
         id="g4044-2-1-5">
        <flowRoot
           xml:space="preserve"
           id="flowRoot4027-4-4-7"
           style="font-size:40px;font-style:normal;font-weight:normal;line-height:125%;letter-spacing:0px;word-spacing:0px;fill:#000000;fill-opacity:1;stroke:none;font-family:Sans"
           transform="translate(-334.29523,15.508129)"><flowRegion
             id="flowRegion4029-5-2-6"><rect
               id="rect4031-5-3-1"
               width="202.60316"
               height="223.8765"
               x="703.03302"
               y="145.0343" /></flowRegion><flowPara
             id="flowPara6336"
             style="font-size:28px;text-align:center;text-anchor:middle">Rendering Subroutine</flowPara><flowPara
             id="flowPara4136-6-9"
             style="font-size:36px;text-align:center;text-anchor:middle" /></flowRoot>      </g>
      <g
         transform="translate(-0.00453994,-0.67455314)"
         id="g6731">
        <rect
           style="fill:#000000;fill-opacity:0.32275133;stroke:#000000;stroke-width:0.99000001;stroke-miterlimit:4;stroke-opacity:1;stroke-dasharray:7.92, 3.96;stroke-dashoffset:9.8999999"
           id="rect4025-8-2"
           width="154.39359"
           height="183.91"
           x="414.36969"
           y="514.78497" />
        <flowRoot
           xml:space="preserve"
           id="flowRoot4027-4-9"
           style="font-size:40px;font-style:normal;font-weight:normal;line-height:125%;letter-spacing:0px;word-spacing:0px;fill:#000000;fill-opacity:1;stroke:none;font-family:Sans"
           transform="translate(-288.3372,409.49669)"><flowRegion
             id="flowRegion4029-5-5"><rect
               id="rect4031-5-4"
               width="153.63597"
               height="223.8765"
               x="703.03302"
               y="145.0343" /></flowRegion><flowPara
             id="flowPara4138-2"
             style="font-size:28px;text-align:center;text-anchor:middle">Graphic Engine Sync Hooks</flowPara><flowPara
             id="flowPara4136-3"
             style="font-size:36px;text-align:center;text-anchor:middle" /></flowRoot>      </g>
      <path
         sodipodi:nodetypes="cc"
         style="fill:none;stroke:#000000;stroke-width:0.99212599;stroke-linecap:butt;stroke-linejoin:miter;stroke-miterlimit:0.10000045;stroke-opacity:1;stroke-dasharray:none;marker-start:url(#DotM);marker-mid:none;marker-end:url(#Arrow2Lend)"
         d="m 568.75874,319.98318 114.65995,-0.29126"
         id="path4361"
         inkscape:connector-curvature="0" />
      <path
         style="fill:none;stroke:#000000;stroke-width:0.99212599;stroke-linecap:butt;stroke-linejoin:miter;stroke-miterlimit:0.10000045;stroke-opacity:1;stroke-dasharray:none;marker-start:url(#DotM);marker-mid:none;marker-end:url(#Arrow2Lend)"
         d="m 810.95453,407.3972 0.4273,38.25689"
         id="path4361-3"
         inkscape:connector-curvature="0"
         sodipodi:nodetypes="cc" />
      <path
         style="fill:none;stroke:#000000;stroke-width:0.99212599;stroke-linecap:butt;stroke-linejoin:miter;stroke-miterlimit:0.10000045;stroke-opacity:1;stroke-dasharray:none;marker-start:url(#DotM);marker-mid:none;marker-end:url(#Arrow2Lend)"
         d="m 490.21883,381.22886 0.4273,22.07113"
         id="path4361-3-8"
         inkscape:connector-curvature="0"
         sodipodi:nodetypes="cc" />
      <path
         style="fill:none;stroke:#000000;stroke-width:0.99212599;stroke-linecap:butt;stroke-linejoin:miter;stroke-miterlimit:0.10000045;stroke-opacity:1;stroke-dasharray:none;marker-start:url(#DotM);marker-mid:none;marker-end:url(#Arrow2Lend)"
         d="m 491.17222,510.42359 -0.4273,-22.07112"
         id="path4361-3-8-6"
         inkscape:connector-curvature="0"
         sodipodi:nodetypes="cc" />
      <path
         style="fill:none;stroke:#000000;stroke-width:0.99212599;stroke-linecap:butt;stroke-linejoin:miter;stroke-miterlimit:0.10000045;stroke-opacity:1;stroke-dasharray:none;marker-start:url(#DotM);marker-mid:none;marker-end:url(#Arrow2Lend)"
         d="m 572.82445,610.39854 134.14207,-0.53247"
         id="path4361-5"
         inkscape:connector-curvature="0"
         sodipodi:nodetypes="cc" />
      <rect
         y="255.01836"
         x="245.21335"
         height="443.61496"
         width="139.01474"
         id="rect4025-8-8"
         style="fill:#000000;fill-opacity:0.32275133;stroke:#000000;stroke-width:0.99000001;stroke-miterlimit:4;stroke-opacity:1;stroke-dasharray:7.92, 3.96;stroke-dashoffset:9.8999999" />
      <flowRoot
         transform="translate(-487.16597,290.36909)"
         style="font-size:40px;font-style:normal;font-weight:normal;line-height:125%;letter-spacing:0px;word-spacing:0px;fill:#000000;fill-opacity:1;stroke:none;font-family:Sans"
         id="flowRoot4027-4-96"
         xml:space="preserve"><flowRegion
           id="flowRegion4029-5-3"><rect
             y="145.0343"
             x="703.03302"
             height="223.8765"
             width="202.60316"
             id="rect4031-5-7" /></flowRegion><flowPara
           style="font-size:28px;text-align:center;text-anchor:middle"
           id="flowPara4138-29">Callbacks</flowPara><flowPara
           style="font-size:36px;text-align:center;text-anchor:middle"
           id="flowPara4136-1" /></flowRoot>      <path
         sodipodi:nodetypes="cc"
         style="fill:none;stroke:#000000;stroke-width:0.99212599;stroke-linecap:butt;stroke-linejoin:miter;stroke-miterlimit:0.10000045;stroke-opacity:1;stroke-dasharray:none;marker-start:url(#DotM);marker-mid:none;marker-end:url(#Arrow2Lend)"
         d="m 385.84792,286.85254 29.59123,-0.29126"
         id="path4361-6"
         inkscape:connector-curvature="0" />
      <path
         sodipodi:nodetypes="cc"
         style="fill:none;stroke:#000000;stroke-width:0.99212599;stroke-linecap:butt;stroke-linejoin:miter;stroke-miterlimit:0.10000045;stroke-opacity:1;stroke-dasharray:none;marker-start:url(#DotM);marker-mid:none;marker-end:url(#Arrow2Lend)"
         d="m 385.44664,616.69729 29.59123,-0.29126"
         id="path4361-6-2"
         inkscape:connector-curvature="0" />
      <g
         id="g6685">
        <rect
           style="fill:#000000;fill-opacity:0.32275133;stroke:#000000;stroke-width:0.99000001;stroke-miterlimit:4;stroke-opacity:1;stroke-dasharray:7.92, 3.96;stroke-dashoffset:9.8999999"
           id="rect4025-8-8-3"
           width="139.01474"
           height="369.80219"
           x="73.791054"
           y="193.97076" />
        <flowRoot
           xml:space="preserve"
           id="flowRoot4027-4-0"
           style="font-size:40px;font-style:normal;font-weight:normal;line-height:125%;letter-spacing:0px;word-spacing:0px;fill:#000000;fill-opacity:1;stroke:none;font-family:Sans"
           transform="translate(-661.60042,145.76377)"><flowRegion
             id="flowRegion4029-5-9"><rect
               id="rect4031-5-73"
               width="202.60316"
               height="223.8765"
               x="703.03302"
               y="145.0343" /></flowRegion><flowPara
             id="flowPara4138-6"
             style="font-size:28px;text-align:center;text-anchor:middle">Core </flowPara><flowPara
             style="font-size:28px;text-align:center;text-anchor:middle"
             id="flowPara6443">Game </flowPara><flowPara
             style="font-size:28px;text-align:center;text-anchor:middle"
             id="flowPara6445">Logic </flowPara><flowPara
             style="font-size:28px;text-align:center;text-anchor:middle"
             id="flowPara6439">(Game</flowPara><flowPara
             style="font-size:28px;text-align:center;text-anchor:middle"
             id="flowPara6441">Master)</flowPara><flowPara
             id="flowPara4136-0"
             style="font-size:36px;text-align:center;text-anchor:middle" /></flowRoot>      </g>
      <g
         transform="translate(0.41055321,-1.2912612)"
         id="g6697">
        <rect
           style="fill:#000000;fill-opacity:0.32275133;stroke:#000000;stroke-width:0.99000001;stroke-miterlimit:4;stroke-opacity:1;stroke-dasharray:7.92, 3.96;stroke-dashoffset:9.8999999"
           id="rect4025-8-8-3-1"
           width="139.01474"
           height="112.92507"
           x="73.380501"
           y="586.92224" />
        <flowRoot
           xml:space="preserve"
           id="flowRoot4027-4-0-6"
           style="font-size:40px;font-style:normal;font-weight:normal;line-height:125%;letter-spacing:0px;word-spacing:0px;fill:#000000;fill-opacity:1;stroke:none;font-family:Sans"
           transform="translate(-661.95979,458.36115)"><flowRegion
             id="flowRegion4029-5-9-5"><rect
               id="rect4031-5-73-7"
               width="202.60316"
               height="223.8765"
               x="703.03302"
               y="145.0343" /></flowRegion><flowPara
             style="font-size:28px;text-align:center;text-anchor:middle"
             id="flowPara6441-0">Player </flowPara><flowPara
             style="font-size:28px;text-align:center;text-anchor:middle"
             id="flowPara6521">Interface</flowPara><flowPara
             id="flowPara4136-0-0"
             style="font-size:36px;text-align:center;text-anchor:middle" /></flowRoot>      </g>
      <path
         sodipodi:nodetypes="cc"
         style="fill:none;stroke:#000000;stroke-width:0.99212599;stroke-linecap:butt;stroke-linejoin:miter;stroke-miterlimit:0.10000045;stroke-opacity:1;stroke-dasharray:none;marker-start:url(#DotM);marker-mid:none;marker-end:url(#Arrow2Lend)"
         d="m 214.46285,405.57644 29.59123,-0.29126"
         id="path4361-6-7"
         inkscape:connector-curvature="0" />
      <path
         style="fill:none;stroke:#000000;stroke-width:0.99212599;stroke-linecap:butt;stroke-linejoin:miter;stroke-miterlimit:0.10000045;stroke-opacity:1;stroke-dasharray:none;marker-start:url(#DotM);marker-mid:none;marker-end:url(#Arrow2Lend)"
         d="m 88.656269,565.41924 0.4273,22.07113"
         id="path4361-3-8-4"
         inkscape:connector-curvature="0"
         sodipodi:nodetypes="cc" />
      <path
         style="fill:none;stroke:#000000;stroke-width:0.99212599;stroke-linecap:butt;stroke-linejoin:miter;stroke-miterlimit:0.10000045;stroke-opacity:1;stroke-dasharray:none;marker-start:url(#DotM);marker-mid:none;marker-end:url(#Arrow2Lend)"
         d="m 200.33044,585.68707 -0.4273,-22.07112"
         id="path4361-3-8-6-8-7"
         inkscape:connector-curvature="0"
         sodipodi:nodetypes="cc" />
      <path
         sodipodi:nodetypes="cc"
         style="fill:none;stroke:#000000;stroke-width:0.99212599;stroke-linecap:butt;stroke-linejoin:miter;stroke-miterlimit:0.10000045;stroke-opacity:1;stroke-dasharray:none;marker-start:url(#DotM);marker-mid:none;marker-end:url(#Arrow2Lend)"
         d="m 214.35776,240.19544 203.20921,-0.29126"
         id="path4361-6-8"
         inkscape:connector-curvature="0" />
      <path
         sodipodi:nodetypes="cc"
         style="fill:none;stroke:#000000;stroke-width:0.99212599;stroke-linecap:butt;stroke-linejoin:miter;stroke-miterlimit:0.10000045;stroke-opacity:1;stroke-dasharray:none;marker-start:url(#DotM);marker-mid:none;marker-end:url(#Arrow2Lend)"
         d="m 414.36515,217.19605 -203.20921,0.29126"
         id="path4361-6-8-8"
         inkscape:connector-curvature="0" />
      <rect
         y="309.00443"
         x="684.59692"
         height="24.465919"
         width="12.592138"
         id="rect4136"
         style="fill:#f7f62f;fill-opacity:1;stroke:#000000;stroke-width:0.5;stroke-miterlimit:0.1;stroke-opacity:1;stroke-dasharray:none;stroke-dashoffset:75.59996386" />
      <rect
         transform="matrix(0,1,-1,0,0,0)"
         y="-211.93741"
         x="550.01227"
         height="24.465919"
         width="12.592138"
         id="rect4136-5"
         style="fill:#f7f62f;fill-opacity:1;stroke:#000000;stroke-width:0.40000001;stroke-miterlimit:0.1;stroke-opacity:1;stroke-dasharray:none;stroke-dashoffset:75.59996386" />
      <rect
         y="205.25664"
         x="198.62012"
         height="24.465919"
         width="12.592138"
         id="rect4136-2"
         style="fill:#f7f62f;fill-opacity:1;stroke:#000000;stroke-width:0.5;stroke-miterlimit:0.1;stroke-opacity:1;stroke-dasharray:none;stroke-dashoffset:75.59996386" />
      <path
         sodipodi:nodetypes="cc"
         style="fill:none;stroke:#000000;stroke-width:0.99212599;stroke-linecap:butt;stroke-linejoin:miter;stroke-miterlimit:0.10000045;stroke-opacity:1;stroke-dasharray:none;marker-start:url(#DotM);marker-mid:none;marker-end:url(#Arrow2Lend)"
         d="m 683.41869,319.98318 22.70494,-0.29126"
         id="path4361-60"
         inkscape:connector-curvature="0" />
    </g>
    <rect
       style="fill:#f7f62f;fill-opacity:1;stroke:#000000;stroke-width:0.5;stroke-miterlimit:0.1;stroke-opacity:1;stroke-dasharray:none;stroke-dashoffset:75.59996386"
       id="rect4136-9"
       width="12.592138"
       height="24.465919"
       x="546.85083"
       y="703.73389" />
    <flowRoot
       xml:space="preserve"
       id="flowRoot4331"
       style="font-size:24px;font-style:normal;font-weight:normal;line-height:125%;letter-spacing:0px;word-spacing:0px;fill:#000000;fill-opacity:1;stroke:none;font-family:Sans"
       transform="translate(9.2594497,-23.993718)"><flowRegion
         id="flowRegion4333"><rect
           id="rect4335"
           width="211.31981"
           height="29.616791"
           x="573.12494"
           y="728.17914" /></flowRegion><flowPara
         id="flowPara4337">API </flowPara></flowRoot>  </g>
</svg>
